<svg version="1.1" id="Layer_1" xmlns="http://www.w3.org/2000/svg" xmlns:xlink="http://www.w3.org/1999/xlink" x="0px" y="0px"
	 width="682.465px" height="88.496px" viewBox="0 0 682.465 88.496" enable-background="new 0 0 682.465 88.496"
	 xml:space="preserve">
<path fill="#FFFFFF" d="M66.416,44.283c-0.072,13.25-8.496,25.995-25.418,25.995S15.58,57.46,15.58,44.139
	c0-13.537,8.425-25.922,25.418-25.922S66.488,30.674,66.416,44.283z M19.396,44.211c0.071,11.376,7.272,22.466,21.602,22.466
	c14.401,0,21.674-11.09,21.674-22.466c0-11.665-7.2-22.394-21.674-22.394S19.324,32.331,19.396,44.211z"/>
<path fill="#FFFFFF" d="M119.622,24.625l-19.297,29.523h-1.297L79.586,24.625v44.789h-3.889V19.009c1.873,0,2.736,0,4.608,0
	l19.298,29.378l19.082-29.378h4.752v50.405h-3.816L119.622,24.625L119.622,24.625z"/>
<path fill="#FFFFFF" d="M136.25,19.009l33.915,41.692V19.009h3.816v50.405h-1.512l-33.987-41.621v41.621h-3.889V19.009H136.25z"/>
<path fill="#FFFFFF" d="M185.281,69.414V19.009h3.816v50.405H185.281L185.281,69.414z"/>
<path fill="#FFFFFF" d="M239.86,28.298c-4.392-4.32-10.513-6.48-16.201-6.48c-14.761,0-22.321,10.801-22.25,22.466
	c0,11.881,7.561,22.106,22.25,22.106c5.4,0,11.018-1.872,15.338-5.833V46.443h-17.57v-3.384h21.242v18.866
	c-5.257,5.256-11.521,8.137-19.01,8.137c-17.138,0-25.994-11.953-25.994-25.706c-0.072-15.77,10.657-26.066,25.994-26.066
	c6.625,0,13.321,2.521,18.434,7.561L239.86,28.298z"/>
<path fill="#FFFFFF" d="M301.852,44.283c-0.072,13.25-8.496,25.995-25.418,25.995s-25.418-12.817-25.418-26.139
	c0-13.537,8.425-25.922,25.418-25.922C293.427,18.217,301.924,30.674,301.852,44.283z M254.833,44.211
	c0.071,11.376,7.272,22.466,21.602,22.466c14.401,0,21.674-11.09,21.674-22.466c0-11.665-7.2-22.394-21.674-22.394
	S254.76,32.331,254.833,44.211z"/>
<polygon fill="#FFFFFF" points="332.737,19.009 328.488,19.009 305.878,69.414 310.054,69.414 330.577,22.753 351.17,69.414 
	355.346,69.414 "/>
<path fill="#FFFFFF" d="M367.872,22.538h-18.217v-3.457h40.324v3.457H371.76v46.875h-3.889V22.538L367.872,22.538z"/>
<path fill="#FFFFFF" d="M459.385,43.635c0.287,12.818-7.922,25.779-25.563,25.779c-5.689,0-11.377,0-17.066,0V19.009
	c5.689,0,11.377,0,17.066,0C450.887,19.009,459.096,31.25,459.385,43.635z M420.647,22.682v42.987h13.176
	c14.979,0,21.891-11.232,21.674-22.034c-0.215-10.513-7.127-20.954-21.674-20.954H420.647z"/>
<path fill="#FFFFFF" d="M471.983,42.267h29.521v3.527h-29.521v19.875h31.826v3.744h-35.645V19.009h34.779v3.672h-30.963v19.586
	H471.983z"/>
<path fill="#FFFFFF" d="M546.577,28.73c-3.672-5.904-9.576-6.769-15.266-6.84c-5.904,0-15.266,2.16-15.266,10.225
	c0,6.409,6.912,7.921,15.408,9.505c9.721,1.872,19.803,3.601,19.803,14.473c-0.072,11.377-11.521,14.113-19.945,14.113
	c-7.85,0-16.777-3.24-20.666-10.945l3.455-1.729c3.098,6.121,11.02,9.145,17.211,9.145s16.057-1.727,16.057-10.656
	c0.072-7.561-8.279-9.217-16.561-10.801c-9.217-1.8-18.65-3.672-18.65-12.961c-0.215-10.657,10.873-13.969,19.154-13.969
	c7.199,0,13.465,1.152,18.434,8.569L546.577,28.73z"/>
<path fill="#FFFFFF" d="M559.534,69.414V19.009h3.816v50.405H559.534L559.534,69.414z"/>
<path fill="#FFFFFF" d="M614.114,28.298c-4.395-4.32-10.516-6.48-16.203-6.48c-14.76,0-22.32,10.801-22.25,22.466
	c0,11.881,7.563,22.106,22.25,22.106c5.4,0,11.018-1.872,15.338-5.833V46.443H595.68v-3.384h21.24v18.866
	c-5.256,5.256-11.52,8.137-19.01,8.137c-17.137,0-25.994-11.953-25.994-25.706c-0.07-15.77,10.658-26.066,25.994-26.066
	c6.625,0,13.322,2.521,18.434,7.561L614.114,28.298z"/>
<path fill="#FFFFFF" d="M629.157,19.009l33.916,41.692V19.009h3.814v50.405h-1.512l-33.988-41.621v41.621H627.5V19.009H629.157z"/>
</svg>
