<?xml version="1.0" encoding="utf-8"?>
<!-- Generator: Adobe Illustrator 16.0.3, SVG Export Plug-In . SVG Version: 6.00 Build 0)  -->
<!DOCTYPE svg PUBLIC "-//W3C//DTD SVG 1.1//EN" "http://www.w3.org/Graphics/SVG/1.1/DTD/svg11.dtd">
<svg version="1.1" id="title" xmlns="http://www.w3.org/2000/svg" xmlns:xlink="http://www.w3.org/1999/xlink" x="0px" y="0px"
	 width="682.466px" height="88.495px" viewBox="0 0 682.466 88.495" enable-background="new 0 0 682.466 88.495"
	 xml:space="preserve">
<g>
	<g>
		<path fill="#FFFFFF" d="M63.949,67.925c0,1.148-0.369,2.086-1.107,2.813c-0.738,0.727-1.682,1.09-2.83,1.09H44.613
			c-1.148,0-2.086-0.363-2.813-1.09c-0.727-0.726-1.09-1.664-1.09-2.813V20.71c0-1.148,0.363-2.086,1.09-2.813
			c0.726-0.726,1.664-1.09,2.813-1.09h15.398c1.148,0,2.092,0.364,2.83,1.09c0.738,0.727,1.107,1.665,1.107,2.813V67.925z
			 M59.063,67.503V21.132H45.598v46.371H59.063z"/>
		<path fill="#FFFFFF" d="M114.349,71.828h-4.605v-34.84c0-0.492,0.164-1.934,0.492-4.324l-9,33.996h-0.984l-9-33.996
			c0.328,2.414,0.492,3.855,0.492,4.324v34.84h-4.605v-55.02h4.535l8.93,35.789c0.047,0.188,0.093,0.715,0.141,1.582
			c0-0.352,0.047-0.879,0.141-1.582l8.93-35.789h4.535V71.828z"/>
		<path fill="#FFFFFF" d="M160.214,71.828h-3.375l-14.695-40.465v40.465h-4.605v-55.02h3.656l14.414,39.762V16.808h4.605V71.828z"/>
		<path fill="#FFFFFF" d="M188.571,71.828h-4.887v-55.02h4.887V71.828z"/>
		<path fill="#FFFFFF" d="M234.401,67.925c0,1.148-0.364,2.086-1.09,2.813c-0.727,0.727-1.665,1.09-2.813,1.09h-14.449
			c-1.148,0-2.086-0.363-2.813-1.09c-0.727-0.726-1.09-1.664-1.09-2.813V20.71c0-1.148,0.363-2.086,1.09-2.813
			c0.726-0.726,1.664-1.09,2.813-1.09h14.449c1.148,0,2.086,0.364,2.813,1.09c0.726,0.727,1.09,1.665,1.09,2.813v12.797h-4.922
			V21.132h-12.445v46.371h12.445v-19.02h-5.871v-4.219h10.793V67.925z"/>
		<path fill="#FFFFFF" d="M280.758,67.925c0,1.148-0.369,2.086-1.107,2.813c-0.738,0.727-1.682,1.09-2.83,1.09h-15.398
			c-1.148,0-2.086-0.363-2.813-1.09c-0.727-0.726-1.09-1.664-1.09-2.813V20.71c0-1.148,0.363-2.086,1.09-2.813
			c0.726-0.726,1.664-1.09,2.813-1.09h15.398c1.148,0,2.092,0.364,2.83,1.09c0.738,0.727,1.107,1.665,1.107,2.813V67.925z
			 M275.871,67.503V21.132h-13.465v46.371H275.871z"/>
		<polygon fill="#FFFFFF" points="316.392,16.667 311.576,16.667 301.767,71.687 301.767,71.828 306.478,71.828 313.896,25.457 
			321.279,71.828 326.13,71.828 		"/>
		<path fill="#FFFFFF" d="M366.089,21.132h-8.508v50.695h-4.887V21.132h-8.578v-4.324h21.973V21.132z"/>
		<path fill="#FFFFFF" d="M437.393,61.878c0,2.906-0.955,5.291-2.865,7.154s-4.318,2.795-7.225,2.795h-12.586v-55.02h12.586
			c2.93,0,5.344,0.932,7.242,2.795s2.848,4.249,2.848,7.154V61.878z M432.506,61.386V27.179c0-1.805-0.568-3.264-1.705-4.377
			c-1.137-1.113-2.607-1.67-4.412-1.67h-6.785v46.371h6.504c1.898,0,3.439-0.545,4.623-1.635S432.506,63.285,432.506,61.386z"/>
		<path fill="#FFFFFF" d="M478.441,71.828h-18.07v-55.02h17.859v4.324h-12.973v20.531h11.813v4.395h-11.813v21.445h13.184V71.828z"
			/>
		<path fill="#FFFFFF" d="M521.916,67.925c0,1.148-0.357,2.086-1.072,2.813c-0.715,0.727-1.646,1.09-2.795,1.09h-13.852
			c-1.148,0-2.092-0.363-2.83-1.09c-0.738-0.726-1.107-1.664-1.107-2.813V53.968h4.887v13.535h11.883V54.39l-15.188-18.352
			c-1.055-1.266-1.582-2.66-1.582-4.184V20.71c0-1.148,0.369-2.086,1.107-2.813c0.738-0.726,1.682-1.09,2.83-1.09h13.852
			c1.148,0,2.08,0.364,2.795,1.09c0.715,0.727,1.072,1.665,1.072,2.813v12.797h-4.887V21.132h-11.883v11.602l15.258,18.352
			c1.008,1.219,1.512,2.59,1.512,4.113V67.925z"/>
		<path fill="#FFFFFF" d="M550.131,71.828h-4.887v-55.02h4.887V71.828z"/>
		<path fill="#FFFFFF" d="M595.961,67.925c0,1.148-0.363,2.086-1.09,2.813c-0.727,0.727-1.664,1.09-2.813,1.09H577.61
			c-1.148,0-2.086-0.363-2.813-1.09c-0.727-0.726-1.09-1.664-1.09-2.813V20.71c0-1.148,0.363-2.086,1.09-2.813
			c0.727-0.726,1.664-1.09,2.813-1.09h14.449c1.148,0,2.086,0.364,2.813,1.09c0.727,0.727,1.09,1.665,1.09,2.813v12.797h-4.922
			V21.132h-12.445v46.371h12.445v-19.02h-5.871v-4.219h10.793V67.925z"/>
		<path fill="#FFFFFF" d="M641.755,71.828h-3.375l-14.695-40.465v40.465h-4.605v-55.02h3.656L637.15,56.57V16.808h4.605V71.828z"/>
	</g>
</g>
<g>
</g>
<g>
</g>
<g>
</g>
<g>
</g>
<g>
</g>
<g>
</g>
</svg>
